# xmcd
# 
# Track frame offsets:
#     150
#     20740
#     36883
#     57422
# 
# Disc length: 979
# 
# Revision: 1
# Processed by: cddbd v1.5.2PL0 Copyright (c) Steve Scherf et al.
# Submitted via: fre:ac v1.0.31
# 
DISCID=3103d104
DTITLE=島崎和歌子 - 何かいい事きっとある
DYEAR=1993
DGENRE=JPop
TTITLE0=何かいい事きっとある
TTITLE1=Little Love
TTITLE2=何かいい事きっとある (ｶﾗｵｹ)
TTITLE3=Little Love (ｶﾗｵｹ)
EXTD=YEAR: 1993/03/03
EXTT0=
EXTT1=
EXTT2=
EXTT3=
PLAYORDER=
